<svg xmlns="http://www.w3.org/2000/svg" width="73" height="73" viewBox="0 0 73 73"><g><g opacity=".25"><path fill="#fff" d="M36.5 0C56.658 0 73 16.21 73 36.211c0 20-16.342 36.213-36.5 36.213C16.34 72.425 0 56.21 0 36.212 0 16.212 16.34-.001 36.5-.001z"/></g><g><path fill="#f4f5f9" d="M37 4c17.673 0 32 14.326 32 31.998 0 17.674-14.327 32-32 32-17.673 0-32-14.326-32-32C5 18.326 19.327 4 37 4z"/></g><g><path fill="#e74c3c" d="M45.066 47.559c0 .243-.2.44-.445.44H30.379a.443.443 0 0 1-.445-.44c0-.244.2-.44.445-.44h5.192v-1.907c0-.243.2-.44.445-.44.246 0 .446.197.446.44v1.907h2.076v-1.907c0-.243.2-.44.445-.44.246 0 .445.197.445.44v1.907h5.193c.246 0 .445.196.445.44zM51 27.026v15.84c0 .566-.466 1.026-1.038 1.026h-.742v.148c0 .242-.2.439-.445.439a.442.442 0 0 1-.445-.44v-.147h-.89v.148c0 .242-.2.439-.446.439a.442.442 0 0 1-.445-.44v-.147h-.89v.148c0 .242-.199.439-.445.439a.442.442 0 0 1-.445-.44v-.147H25.04c-.573 0-1.04-.46-1.04-1.026v-15.84c0-.566.467-1.027 1.04-1.027h24.923c.572 0 1.038.46 1.038 1.027zm-.89 0a.15.15 0 0 0-.148-.147H25.038a.15.15 0 0 0-.148.147v15.84a.15.15 0 0 0 .148.146h24.924a.15.15 0 0 0 .148-.146zm-.89 1.173v9.387c0 .243-.2.44-.445.44a.442.442 0 0 1-.445-.44v-8.947H26.225a.443.443 0 0 1-.445-.44c0-.243.2-.44.445-.44h22.55c.245 0 .445.197.445.44zm0 11.147v2.346c0 .243-.2.44-.445.44h-22.55a.443.443 0 0 1-.445-.44V29.959c0-.243.2-.44.445-.44.246 0 .445.197.445.44v11.294h21.66v-1.907c0-.243.199-.44.445-.44.245 0 .445.197.445.44z"/></g></g></svg>